<svg
    width="45"
    height="45"
    viewBox="0 0 50 50"
    fill="none"
    xmlns="http://www.w3.org/2000/svg"
>
    <path
        d="M25 0L0 20.1075V24.5691L25 4.45721L50 24.5691V20.1075L25 0ZM25 6.96439L5.19481 22.8933V50H15.368C15.3788 46.4852 15.4545 41.3489 16.4719 36.8329C17.0346 34.3628 17.868 32.0558 19.2208 30.3038C20.5844 28.541 22.5433 27.3657 25 27.3657C27.4567 27.3657 29.4156 28.541 30.7792 30.3038C32.132 32.0558 32.9654 34.3628 33.5281 36.8329C34.5455 41.3489 34.6212 46.4852 34.632 50H44.8052V22.8933L25 6.96439ZM15.0325 18.5732C15.464 18.5842 15.9142 18.6665 16.342 18.8126C16.8191 18.9732 17.2512 19.2071 17.5897 19.4879C17.9282 19.7686 18.1595 20.085 18.2576 20.4013H31.7424C31.8405 20.085 32.0718 19.7686 32.4103 19.4879C32.7488 19.2071 33.1809 18.9732 33.658 18.8126C34.0858 18.6665 34.536 18.5842 34.9675 18.5732C35.4307 18.5645 35.8542 18.6388 36.1933 18.7882C36.5324 18.9376 36.7745 19.1566 36.8939 19.422C37.0493 19.7624 36.9939 20.1611 36.7373 20.5501C36.4808 20.939 36.0388 21.2942 35.487 21.5548C35.9648 21.8222 36.3348 22.1606 36.5431 22.5207C36.7513 22.8808 36.7871 23.2439 36.645 23.5571C36.5582 23.7512 36.4055 23.9213 36.1957 24.0576C35.9858 24.194 35.7231 24.2938 35.4224 24.3514C35.1217 24.4091 34.7891 24.4234 34.4436 24.3935C34.0981 24.3636 33.7465 24.2901 33.4091 24.1773C32.8734 23.9963 32.3962 23.7236 32.0448 23.3976C31.6933 23.0715 31.4854 22.7086 31.4502 22.3601H18.5498C18.5146 22.7086 18.3067 23.0715 17.9552 23.3976C17.6038 23.7236 17.1266 23.9963 16.5909 24.1773C16.2535 24.2901 15.9019 24.3636 15.5564 24.3935C15.2109 24.4234 14.8783 24.4091 14.5776 24.3514C14.2769 24.2938 14.0142 24.194 13.8043 24.0576C13.5945 23.9213 13.4418 23.7512 13.355 23.5571C13.2129 23.2439 13.2487 22.8808 13.4569 22.5207C13.6652 22.1606 14.0352 21.8222 14.513 21.5548C13.9612 21.2942 13.5192 20.939 13.2627 20.5501C13.0061 20.1611 12.9507 19.7624 13.1061 19.422C13.2255 19.1566 13.4676 18.9376 13.8067 18.7882C14.1458 18.6388 14.5693 18.5645 15.0325 18.5732Z"
        fill="#B24439"
    />
</svg>